<svg class="animated" id="freepik_stories-track-and-field" xmlns="http://www.w3.org/2000/svg" viewBox="0 0 500 500" version="1.1" xmlns:xlink="http://www.w3.org/1999/xlink" xmlns:svgjs="http://svgjs.com/svgjs"><style>svg#freepik_stories-track-and-field:not(.animated) .animable {opacity: 0;}svg#freepik_stories-track-and-field.animated #freepik--Clouds--inject-4 {animation: 2.6s 1 forwards cubic-bezier(.36,-0.01,.5,1.38) zoomIn;animation-delay: 0s;}svg#freepik_stories-track-and-field.animated #freepik--character-2--inject-4 {animation: 2.0s 1 forwards cubic-bezier(.36,-0.01,.5,1.38) slideUp;animation-delay: 0s;}svg#freepik_stories-track-and-field.animated #freepik--character-1--inject-4 {animation: 2.0s 1 forwards cubic-bezier(.36,-0.01,.5,1.38) slideLeft;animation-delay: 0s;}            @keyframes zoomIn {                0% {                    opacity: 0;                    transform: scale(0.5);                }                100% {                    opacity: 1;                    transform: scale(1);                }            }                    @keyframes slideUp {                0% {                    opacity: 0;                    transform: translateY(30px);                }                100% {                    opacity: 1;                    transform: inherit;                }            }                    @keyframes slideLeft {                0% {                    opacity: 0;                    transform: translateX(-30px);                }                100% {                    opacity: 1;                    transform: translateX(0);                }            }        </style><g id="freepik--Plant--inject-4" class="animable" style="transform-origin: 448.909px 238.361px;"><g id="freepik--Plants--inject-4" class="animable" style="transform-origin: 448.909px 238.361px;"><path d="M436.54,269.79l-8-4.64s-4.78-19.87-2.87-37.74c2.67-25.13,19.22-34.59,25.51-32.42s8.11,9.48-2.3,24.45C442.71,228.27,435.17,246.66,436.54,269.79Z" style="fill: rgb(255, 193, 0); transform-origin: 440.757px 232.24px;" id="elt7heq2a2fl" class="animable"></path><g id="el9pucgwhr57"><g style="opacity: 0.15; transform-origin: 440.757px 232.24px;" class="animable"><path d="M436.54,269.79l-8-4.64s-4.78-19.87-2.87-37.74c2.67-25.13,19.22-34.59,25.51-32.42s8.11,9.48-2.3,24.45C442.71,228.27,435.17,246.66,436.54,269.79Z" id="el5as17bleg9i" class="animable" style="transform-origin: 440.757px 232.24px;"></path></g></g><path d="M433.22,260h.07a.57.57,0,0,0,.45-.65c-4.41-23.18,3.69-49.23,13.72-60.07a.56.56,0,0,0-.82-.75c-10.21,11-18.47,37.51-14,61A.56.56,0,0,0,433.22,260Z" style="fill: rgb(255, 255, 255); transform-origin: 439.48px 229.199px;" id="ell040tlhzte" class="animable"></path><path d="M457.59,281.94c1.26.64,4.64-2.24,5.58-2.95a11.78,11.78,0,0,0,3.69-4.69,11,11,0,0,0,.64-6.67,26.15,26.15,0,0,0-1-3.48c-.39-1.12-.77-2.25-1.16-3.37a8.65,8.65,0,0,1-.67-3.42c.18-2.36,2.17-4.1,4-5.61,2-1.66,4.07-3.84,3.92-6.65a10,10,0,0,0-2.78-5.77c-1.43-1.64-3.1-3.06-4.41-4.8a7,7,0,0,1-1.64-4.3,7.2,7.2,0,0,1,.82-2.78c.9-1.89,2.13-3.63,2.71-5.64s.37-4.44-1.24-5.77c-1.32-1.1-3.2-1.16-4.91-1a11.19,11.19,0,0,0-4.42,1.82c-4.34,2.71-6.63,8.13-11.27,10.28a48,48,0,0,1-5.67,1.69c-1.88.6-3.78,1.68-4.57,3.48-1.57,3.57,1.88,7.69.84,11.44-.92,3.32-4,4.73-5.66,7.77a7,7,0,0,0-.62,4.32,20.55,20.55,0,0,0,2.17,7.13,64.19,64.19,0,0,0,4.29,6.6S457.39,281.84,457.59,281.94Z" style="fill: rgb(255, 193, 0); transform-origin: 451.131px 248.503px;" id="elyye0vowq9ps" class="animable"></path><path d="M445.29,275.53h0a.57.57,0,0,0,.51-.61c-2-22,7.14-47,14.36-54.43a.56.56,0,0,0-.81-.77c-7.35,7.62-16.72,32.95-14.66,55.3A.55.55,0,0,0,445.29,275.53Z" style="fill: rgb(255, 255, 255); transform-origin: 452.345px 247.552px;" id="elaelidz0cuta" class="animable"></path><path d="M447.48,248.35l.16,0a75.06,75.06,0,0,1,15.91-3.39.56.56,0,0,0,.5-.61.54.54,0,0,0-.61-.5,75.84,75.84,0,0,0-16.18,3.46.54.54,0,0,0-.33.71A.56.56,0,0,0,447.48,248.35Z" style="fill: rgb(255, 255, 255); transform-origin: 455.472px 246.098px;" id="el2uopmmsvrvg" class="animable"></path></g></g><g id="freepik--Floor--inject-4" class="animable" style="transform-origin: 249.53px 345.75px;"><g id="freepik--Track--inject-4" class="animable" style="transform-origin: 249.53px 345.75px;"><ellipse id="freepik--floor--inject-4" cx="249.53" cy="345.75" rx="236.06" ry="136.29" style="fill: rgb(224, 224, 224); transform-origin: 249.53px 345.75px;" class="animable"></ellipse><path d="M484.86,335.08,268,209.88c-5.56-.25-11.14-.39-16.71-.41L485.57,344.73A80.16,80.16,0,0,0,484.86,335.08Z" style="fill: rgb(250, 250, 250); transform-origin: 368.43px 277.1px;" id="elfn4nkxqb82c" class="animable"></path><path d="M79.56,251.18q-3.94,2.37-7.66,4.81L405,448.3q4.23-2.15,8.33-4.42Z" style="fill: rgb(250, 250, 250); transform-origin: 242.615px 349.74px;" id="elvue9u8fi3kn" class="animable"></path><path d="M19.21,375.66l178.5,103.06q9.69,1.26,19.52,2L15.69,364.4A86.51,86.51,0,0,0,19.21,375.66Z" style="fill: rgb(250, 250, 250); transform-origin: 116.46px 422.56px;" id="elna0vsnrnmse" class="animable"></path></g></g><g id="freepik--Shadow--inject-4" class="animable" style="transform-origin: 264.12px 356.035px;"><g id="freepik--shadow--inject-4"><polygon points="271.67 360.15 278.33 364 390.12 299.46 383.46 295.62 271.67 360.15" style="opacity: 0.1; transform-origin: 330.895px 329.81px;" class="animable"></polygon></g><g id="freepik--shadow--inject-4"><ellipse cx="296.56" cy="300.43" rx="39.63" ry="22.88" style="opacity: 0.1; transform-origin: 296.56px 300.43px;" class="animable"></ellipse></g><g id="freepik--shadow--inject-4"><ellipse cx="177.75" cy="362.42" rx="39.63" ry="22.88" style="opacity: 0.1; transform-origin: 177.75px 362.42px;" class="animable"></ellipse></g><g id="freepik--shadow--inject-4"><polygon points="148.78 430.67 155.44 434.52 267.23 369.99 260.57 366.14 148.78 430.67" style="opacity: 0.1; transform-origin: 208.005px 400.33px;" class="animable"></polygon></g></g><g id="freepik--Clouds--inject-4" class="animable" style="transform-origin: 105.605px 62.1619px;"><g id="freepik--clouds--inject-4" class="animable" style="transform-origin: 105.605px 62.1619px;"><path d="M110.63,39.76l-8.06,4.65a9.77,9.77,0,0,0,.07-1.07V41c0-4.16-2.92-5.84-6.52-3.77A12.77,12.77,0,0,0,92.23,41c-.59-5.23-4.69-7.17-9.67-4.3-5.39,3.11-9.75,10.67-9.75,16.89v3.5a9.35,9.35,0,0,0,.82,4L66.94,65a8,8,0,0,0-3.62,6.26c0,2.31,1.62,3.25,3.62,2.09l43.69-25.22a8,8,0,0,0,3.62-6.27C114.25,39.54,112.63,38.6,110.63,39.76Z" style="fill: rgb(235, 235, 235); transform-origin: 88.785px 54.6097px;" id="elnxmxv5jqgvg" class="animable"></path><path d="M145.14,63.25l-6.09,3.51a7.31,7.31,0,0,0,0-.8V64.19c0-3.13-2.2-4.41-4.92-2.84a9.67,9.67,0,0,0-2.93,2.82c-.44-3.94-3.54-5.41-7.3-3.24a16.28,16.28,0,0,0-7.36,12.75v2.63a6.94,6.94,0,0,0,.63,3.06l-5.06,2.92A6,6,0,0,0,109.43,87c0,1.74,1.22,2.45,2.73,1.58l33-19a6.06,6.06,0,0,0,2.73-4.73C147.87,63.08,146.64,62.38,145.14,63.25Z" style="fill: rgb(235, 235, 235); transform-origin: 128.66px 74.439px;" id="el0nlahqteqfz" class="animable"></path></g></g><g id="freepik--hurdle-2--inject-4" class="animable" style="transform-origin: 319.36px 277.653px;"><g id="freepik--Fence--inject-4" class="animable" style="transform-origin: 319.36px 277.653px;"><path d="M282.12,272.85v76.31a.53.53,0,0,1-.79.46L255.48,334.7l-3.33,5.76,30.3,17.5a4.22,4.22,0,0,0,6.33-3.66V276.7Z" style="fill: rgb(69, 90, 100); transform-origin: 270.465px 315.688px;" id="elrzqs4ozy4y" class="animable"></path><path d="M253.83,334.87c1.3-.75,2.35-.14,2.35,1.36a5.19,5.19,0,0,1-2.35,4.07c-1.3.75-2.36.15-2.36-1.36A5.2,5.2,0,0,1,253.83,334.87Z" style="fill: rgb(69, 90, 100); transform-origin: 253.825px 337.586px;" id="el9wc0d88tq0h" class="animable"></path><path d="M373.92,219.85v76.32a.52.52,0,0,1-.79.45L347.28,281.7,344,287.47,374.25,305a4.23,4.23,0,0,0,6.34-3.66V223.7Z" style="fill: rgb(69, 90, 100); transform-origin: 362.295px 262.707px;" id="elc0ip6wacyt" class="animable"></path><path d="M345.63,281.87c1.3-.75,2.35-.14,2.35,1.36a5.21,5.21,0,0,1-2.35,4.08c-1.3.75-2.35.14-2.35-1.36A5.21,5.21,0,0,1,345.63,281.87Z" style="fill: rgb(69, 90, 100); transform-origin: 345.63px 284.59px;" id="elhve85iw05rm" class="animable"></path><polygon points="268.8 261.31 380.59 196.78 387.25 200.63 387.25 223.7 275.46 288.23 268.8 284.39 268.8 261.31" style="fill: rgb(255, 193, 0); transform-origin: 328.025px 242.505px;" id="elnbjzii0d49" class="animable"></polygon><g id="elmq3h4q72ccb"><polygon points="268.8 261.31 275.46 265.16 387.25 200.63 380.59 196.78 268.8 261.31" style="fill: rgb(255, 255, 255); opacity: 0.8; transform-origin: 328.025px 230.97px;" class="animable"></polygon></g><g id="elfe6o5f63fkn"><polygon points="275.46 265.16 387.25 200.63 387.25 223.7 275.46 288.23 275.46 265.16" style="fill: rgb(255, 255, 255); opacity: 0.65; transform-origin: 331.355px 244.43px;" class="animable"></polygon></g><g id="elmf4wa1f83zs"><polygon points="268.8 261.31 275.46 265.16 275.46 288.23 268.8 284.39 268.8 261.31" style="fill: rgb(255, 255, 255); opacity: 0.5; transform-origin: 272.13px 274.77px;" class="animable"></polygon></g></g></g><g id="freepik--character-2--inject-4" class="animable" style="transform-origin: 323.744px 167.82px;"><g id="freepik--Character--inject-4" class="animable" style="transform-origin: 323.744px 167.82px;"><path d="M312,114.4s5.7-.88,8.81,3.26,2.51,10.26,1.33,15.83S312,114.4,312,114.4Z" style="fill: rgb(242, 143, 143); transform-origin: 317.548px 124.315px;" id="eln9rrv20inm" class="animable"></path><path d="M332.46,184.41c4.81-3.67,9.4-1.78,10.25,4.21s-2.36,13.82-7.18,17.49-9.4,1.78-10.25-4.21S327.64,188.08,332.46,184.41Z" style="fill: rgb(255, 193, 0); transform-origin: 333.995px 195.26px;" id="elk7ob7egqwve" class="animable"></path><g id="eld5tvi4xqs8s"><path d="M332.46,184.41c4.81-3.67,9.4-1.78,10.25,4.21s-2.36,13.82-7.18,17.49-9.4,1.78-10.25-4.21S327.64,188.08,332.46,184.41Z" style="opacity: 0.5; transform-origin: 333.995px 195.26px;" class="animable"></path></g><path d="M314.49,166.6s30.48,19.26,36.76,24.74c4.73,4.13,5.47,6.09,15.07,21.2,8.2,12.93,22.33,35.57,22.33,35.57a9.64,9.64,0,0,1-6.12,7.51s-20.18-19-27.71-26.87-11.19-19.38-11.19-19.38l-42-12.52,1.44-12.14Z" style="fill: rgb(242, 143, 143); transform-origin: 345.14px 211.11px;" id="els0mzklg4oai" class="animable"></path><path d="M403.27,231.41c-3.44.19-5.55,3-7.09,5.5s-4.13,7.07-5.28,7.84-1.83,0-3.45,1.25-2.85,3.56-2.34,4.44l1.2,2.08a4.42,4.42,0,0,0-3.73,1.41c-1.79,1.78-.86,2.09.16,3.11s2.79,4.86,5.17,6.11A22.23,22.23,0,0,0,399,254C403.63,246.68,403.27,231.41,403.27,231.41Z" style="fill: rgb(255, 193, 0); transform-origin: 392.423px 247.28px;" id="el0qdcgz303cyd" class="animable"></path><path d="M389.22,264.11a1.77,1.77,0,0,1-1.41-2.24,21.91,21.91,0,0,1,3.16-6.26c1.62-2.29,4.63-6.56,5.14-8.94s1.61-8.93,3.39-11.7,3.63-4.35,6-3.46-5.09,18.57-7.27,21.56S389.22,264.11,389.22,264.11Z" style="fill: rgb(55, 71, 79); transform-origin: 396.85px 247.686px;" id="elzuiu8pumsus" class="animable"></path><path d="M390.6,263.73c5.89-3.14,7.83-6.2,9.55-10.15s5.81-7.66,6.86-11.23,1.17-12.73-2.89-10.51-4.89,10.41-6.67,15.14S384.82,266.81,390.6,263.73Z" style="fill: rgb(38, 50, 56); transform-origin: 398.276px 247.819px;" id="elx3frdd9vudo" class="animable"></path><path d="M339.55,182.85l-19.39-13.58-38-.67s2.57,21.81,12.81,26.34c12.23,5.4,33.27,12.36,33.27,12.36-4.89-4-3.46-12-.49-17.22C332.35,182.14,336.25,182,339.55,182.85Z" style="fill: rgb(255, 193, 0); transform-origin: 310.855px 187.95px;" id="elhueyir1rxac" class="animable"></path><g id="ellh4tisg2bp"><path d="M339.55,182.85l-19.39-13.58-38-.67s2.57,21.81,12.81,26.34c12.23,5.4,33.27,12.36,33.27,12.36-4.89-4-3.46-12-.49-17.22C332.35,182.14,336.25,182,339.55,182.85Z" style="opacity: 0.35; transform-origin: 310.855px 187.95px;" class="animable"></path></g><g id="elgqaji203dc9"><path d="M307.34,189a30,30,0,0,0,12.82-12.85,21,21,0,0,1-10.81,14.2l-.72,8.09,18,8.32c-6.82-2.28-14-4.86-21.44-7.67Z" style="opacity: 0.2; transform-origin: 315.91px 191.455px;" class="animable"></path></g><path d="M265.47,187.81a5.83,5.83,0,0,0-2.4-2.72,6.44,6.44,0,0,0-6.67,1.5c-2.21,2.25-3.44,5.37-4.86,7.11s-5.14,4.15-7.12,5.33-4.68,5-4.56,9.18a6.5,6.5,0,0,0,3.48,5.19Z" style="fill: rgb(55, 71, 79); transform-origin: 252.663px 199.062px;" id="elc20mrgdjql9" class="animable"></path><path d="M264.67,186.75c-1.56-.9-4.55-.67-6.77,1.09-1.93,1.53-3.38,4.37-4.69,6.36a11.66,11.66,0,0,1-2.68,2.52c-1.14.95-4,2.73-5,3.77a11.93,11.93,0,0,0-2.09,2.88,11.3,11.3,0,0,0-1.32,3.67c-.3,2,0,5,1.4,6.52a3.7,3.7,0,0,0,5.78-.18c.54-.65,1.07-1.29,1.56-2a21.22,21.22,0,0,1,3.27-3.5,26.39,26.39,0,0,1,5.15-3.35c.2-.09.41-.21.61-.28,2.24-.87,4.51-1.56,4.87-2.31s1.44-7.5,3.26-8.82c.48-.34.3-1-.07-1.65S266.24,187.65,264.67,186.75Z" style="fill: rgb(255, 193, 0); transform-origin: 255.162px 200.549px;" id="elx2ya06rrjl" class="animable"></path><path d="M283,165.28c-1,4.11-3.93,14.4-4.61,25.49-.45,7.27-.71,24.46-.71,32.84s-.43,14.59,2.53,17.48,9,2.47,11.92-2.81,4.62-11,7.07-21,3.94-17.08,3.94-17.08l3.18-27.3Z" style="fill: rgb(242, 143, 143); transform-origin: 291.989px 204.075px;" id="el8ujbbb785he" class="animable"></path><path d="M284.63,242.87c-3.69,0-6-1.46-10.7-10.4s-14.26-32.36-14.26-32.36-1.23-4.43,2-7.21c3.63-3.12,5.67-1.12,5.67-1.12s2.59,3.85,5.53,7.63c2.7,3.47,6.22,6.92,8.55,10.18C283.06,211.86,284.63,242.87,284.63,242.87Z" style="fill: rgb(242, 143, 143); transform-origin: 272.035px 217.009px;" id="elpwte7k69ot" class="animable"></path><path d="M277.94,205.31s-.52,20.65-.14,28a70.46,70.46,0,0,1-2.06-15.44,121.49,121.49,0,0,1,.09-14.93Z" style="fill: rgb(177, 102, 104); transform-origin: 276.747px 218.125px;" id="elsda7wg8rpa" class="animable"></path><path d="M283,165.28a83.85,83.85,0,0,0-4.42,17.26c-1.27,9.27-.92,29.51-.92,29.51s2.58,4.5,11.09,6.06,12.83-2.74,12.83-2.74L307.34,189s11.83-5.62,14.82-18.37Z" style="fill: rgb(255, 193, 0); transform-origin: 299.888px 191.865px;" id="elkhma699ktw7" class="animable"></path><g id="elj32holly4e8"><path d="M283,165.28a83.85,83.85,0,0,0-4.42,17.26c-1.27,9.27-.92,29.51-.92,29.51s2.58,4.5,11.09,6.06,12.83-2.74,12.83-2.74L307.34,189s11.83-5.62,14.82-18.37Z" style="opacity: 0.3; transform-origin: 299.888px 191.865px;" class="animable"></path></g><path d="M304.19,97.32l-3.57,12.07c-9.92,0-16.05-9.67-16.05-19.59h0c0-10,6.34-18.3,16.31-18.3h3.24c10,0,18,6.62,18,16.59h0C322.16,94.58,314.12,97.32,304.19,97.32Z" style="fill: rgb(38, 50, 56); transform-origin: 303.345px 90.445px;" id="elmrx6na3c0wr" class="animable"></path><path d="M294.87,114.19h-1.93c-8.79.6-9.27,3.67-9.71,7.49a29.89,29.89,0,0,0,.22,12.48c1.37,5.38,1.81,18.29,1.81,18.29s-2.61,11.14-3.71,16.86c15.35,10,34.25,7.36,40.61,1.3-.13-5.43.15-11.28-.31-16.39,0,0,.24-8.68.87-12.14,4.13-5.26,3.84-9.34,2-13.61C321.61,120.92,314,114.39,312,114.4Z" style="fill: rgb(55, 71, 79); transform-origin: 303.778px 145.091px;" id="el3m9wodc8ib9" class="animable"></path><path d="M315.7,79.45c2.08,1.23,4.65,6.46,4.4,17.41-.22,9.28-3.23,11.57-4.74,12.24s-4.42.25-7.26-.22v5.57s3.92,4.55,3.67,7.11-5.65,3.15-9.31.66-6-7.44-6-7.44v-12s-1.91,2.27-5,.19-3.24-7.21-1.43-9.06,5.74-1.26,6.47,1.29c0,0,4.52.16,10.54-3.14A16.93,16.93,0,0,0,315.7,79.45Z" style="fill: rgb(242, 143, 143); transform-origin: 304.488px 101.631px;" id="el5k6r57kuun9" class="animable"></path><path d="M308.69,94.53a1.17,1.17,0,0,1-1.1,1.26,1.21,1.21,0,1,1,1.1-1.26Z" style="fill: rgb(38, 50, 56); transform-origin: 307.482px 94.5849px;" id="elwsf17uid6wp" class="animable"></path><path d="M310,102.4l2.71.86a1.39,1.39,0,0,1-1.76,1A1.49,1.49,0,0,1,310,102.4Z" style="fill: rgb(177, 102, 104); transform-origin: 311.321px 103.361px;" id="elf3t5tyfo4l9" class="animable"></path><path d="M318.26,90.94l-2.36-1.63a1.38,1.38,0,0,1,2-.41A1.51,1.51,0,0,1,318.26,90.94Z" style="fill: rgb(38, 50, 56); transform-origin: 317.204px 89.7874px;" id="elg8i5kp666ti" class="animable"></path><path d="M317.72,93.68a1.17,1.17,0,1,1-2.33.11,1.17,1.17,0,0,1,1.1-1.26A1.19,1.19,0,0,1,317.72,93.68Z" style="fill: rgb(38, 50, 56); transform-origin: 316.558px 93.7636px;" id="el8rhme1aobrg" class="animable"></path><polygon points="312.02 93.01 312.2 100.04 315.9 98.9 312.02 93.01" style="fill: rgb(177, 102, 104); transform-origin: 313.96px 96.525px;" id="elkskgs0bvik" class="animable"></polygon><path d="M308.1,108.88c-3-.39-9.12-2.15-10.08-4.58a6.33,6.33,0,0,0,2.15,3.1c1.84,1.57,7.93,3.34,7.93,3.34Z" style="fill: rgb(177, 102, 104); transform-origin: 303.06px 107.52px;" id="elyrpnc1lgqc" class="animable"></path><path d="M274.2,78.43c-4.07,3.47-8.36,5.16-13.77,4.75-3.09-.24-6.58-1.07-9,.86-2.1,1.65-2.24,4.25-1.13,6.54,1.21,2.46,4.37,4.09,6.84,5a16,16,0,0,0,9.69.52,18.17,18.17,0,0,0,8.28-4.6,49.73,49.73,0,0,0,4.4-5.78,14.35,14.35,0,0,1,5.31-4.85,25.68,25.68,0,0,1,3.73-1.19c1.34-.4,2.85-1.16,3-2.55a3,3,0,0,0-1.6-2.56,8.87,8.87,0,0,0-6.53-1A21.57,21.57,0,0,0,274.2,78.43Z" style="fill: rgb(38, 50, 56); transform-origin: 270.582px 84.9763px;" id="elodw6771zgnn" class="animable"></path><path d="M294.67,149.87s15.54,1.4,24.85-3.34l-.37,15.52s-10.65,6.33-25.23,2.45Z" style="fill: rgb(240, 240, 240); transform-origin: 306.72px 156.144px;" id="el3us03u1ouqt" class="animable"></path><path d="M302.77,156.94c0,.15,0,.3,0,.48l0,.53,0,.53c0,.17,0,.33,0,.47a4.9,4.9,0,0,1-.26,1.2,2.48,2.48,0,0,1-.58.95,2.25,2.25,0,0,1-1,.6,3.69,3.69,0,0,1-1.42.14,3.78,3.78,0,0,1-1.39-.34,2.48,2.48,0,0,1-.89-.73,2.8,2.8,0,0,1-.47-1,5.48,5.48,0,0,1-.13-1.24c0-.28,0-.61,0-1s0-.68.07-1a5.54,5.54,0,0,1,.27-1.2,2.43,2.43,0,0,1,.57-.93,2.31,2.31,0,0,1,1-.58,3.66,3.66,0,0,1,1.42-.13,4.12,4.12,0,0,1,1.39.32,2.4,2.4,0,0,1,1.36,1.68A5.3,5.3,0,0,1,302.77,156.94Zm-4.68,1.67a2.43,2.43,0,0,0,.32,1.29,1.38,1.38,0,0,0,1.11.53,1.3,1.3,0,0,0,1.15-.37,2.31,2.31,0,0,0,.46-1.24c0-.28.05-.6.07-.94s0-.67,0-.95a2.35,2.35,0,0,0-.32-1.28,1.37,1.37,0,0,0-1.11-.52,1.29,1.29,0,0,0-1.15.36,2.24,2.24,0,0,0-.46,1.22c0,.28-.05.6-.07.95S298.09,158.32,298.09,158.61Z" id="el7ssh535xagw" class="animable" style="transform-origin: 299.706px 157.764px;"></path><path d="M315.77,155.05a1.77,1.77,0,0,0,.47-.63,1.71,1.71,0,0,0,.12-.54.93.93,0,0,0-.24-.74,1.06,1.06,0,0,0-.94-.16,1.51,1.51,0,0,0-.94.44,2.63,2.63,0,0,0-.46.84.34.34,0,0,1-.15.24.45.45,0,0,1-.2.11l-.91.12a.29.29,0,0,1-.22-.06.22.22,0,0,1-.07-.21,2.78,2.78,0,0,1,.31-1,3.5,3.5,0,0,1,.66-.88,3.54,3.54,0,0,1,.93-.66,3.88,3.88,0,0,1,1.12-.37,3,3,0,0,1,1.24,0,2,2,0,0,1,.84.44,2,2,0,0,1,.47.73,2.43,2.43,0,0,1,.12.85c0,.19,0,.37-.07.55a1.84,1.84,0,0,1-.19.54,3.75,3.75,0,0,1-.39.6,7.14,7.14,0,0,1-.68.71l-2.22,2.26c1.27-.2,1.91-.3,3.19-.54a.23.23,0,0,1,.21.05.19.19,0,0,1,.08.19c0,.32,0,.49,0,.81a.37.37,0,0,1-.1.23.39.39,0,0,1-.23.13c-2.14.4-3.22.57-5.35.84a.24.24,0,0,1-.22-.06.28.28,0,0,1-.08-.2c0-.28,0-.42,0-.69a.63.63,0,0,1,.13-.35,1.13,1.13,0,0,1,.21-.22C313.63,157.12,314.34,156.44,315.77,155.05Z" id="el9vhbas6l4fj" class="animable" style="transform-origin: 314.896px 155.716px;"></path><path d="M310.24,152.79a.21.21,0,0,1,.21.05.19.19,0,0,1,.07.19l-.1.8a.52.52,0,0,1-.12.25l-.19.22c-.77.83-1.15,1.24-1.92,2a3.34,3.34,0,0,1,.92.07,1.68,1.68,0,0,1,.67.33,1.23,1.23,0,0,1,.38.58,2,2,0,0,1,0,.85,2.67,2.67,0,0,1-.37,1.09,3.57,3.57,0,0,1-.76.9,4.58,4.58,0,0,1-1.06.68,5.43,5.43,0,0,1-1.28.39,4.43,4.43,0,0,1-1.39,0,2.31,2.31,0,0,1-.94-.33,1.37,1.37,0,0,1-.53-.57,1.45,1.45,0,0,1-.15-.7.3.3,0,0,1,.11-.23.39.39,0,0,1,.24-.12l.92-.13a.21.21,0,0,1,.18,0,.78.78,0,0,1,.13.19.69.69,0,0,0,.16.22.64.64,0,0,0,.28.17,1.44,1.44,0,0,0,.46.07,3.22,3.22,0,0,0,.71-.06,2.63,2.63,0,0,0,1.18-.48,1.27,1.27,0,0,0,.54-.86.54.54,0,0,0-.35-.65,2.42,2.42,0,0,0-1.12,0l-1,.16a.24.24,0,0,1-.21-.06.22.22,0,0,1-.07-.19l.1-.8a.45.45,0,0,1,.12-.25l.19-.21c.74-.77,1.11-1.15,1.84-1.93-1.28.23-1.93.33-3.21.52a.24.24,0,0,1-.21-.06.22.22,0,0,1-.07-.2l.1-.8a.37.37,0,0,1,.12-.23.4.4,0,0,1,.23-.12C307.17,153.37,308.2,153.2,310.24,152.79Z" id="elwry1ezdro3d" class="animable" style="transform-origin: 307.102px 157.013px;"></path><path d="M291.51,114.31c-6.94-.1-10.25,1.75-12.87,8.92s-6.67,35.21-4.4,38.71,23.33,4.63,30.48,4.66,16-1.83,21.3-4.82c5.06-2.87,8.13-9.8,5.68-13.13-1.42-1.93-2.44-1.51-4.05-.13a15.54,15.54,0,0,1-7.29,3.38,17.88,17.88,0,0,0,2-3.12,9.34,9.34,0,0,0,.9-2.28,2.09,2.09,0,0,0-.18-1.79,1.47,1.47,0,0,0-1.87-.09,6.57,6.57,0,0,0-1.41,1.47,14.55,14.55,0,0,1-2.63,2.25l-4.69,3.43a24.44,24.44,0,0,1-2.48,1.67,12.82,12.82,0,0,1-7,1.3,94.26,94.26,0,0,1-16.18-2.29L290.75,131S295.28,122,291.51,114.31Z" style="fill: rgb(242, 143, 143); transform-origin: 303.066px 140.453px;" id="elxlk3iuuarbn" class="animable"></path></g></g><g id="freepik--character-1--inject-4" class="animable" style="transform-origin: 144.735px 257.769px;"><g id="freepik--character--inject-4" class="animable" style="transform-origin: 144.735px 257.769px;"><path d="M196,187.92c-.83-9.34-3.36-13.24-7.28-14.16-6.25-1.47-6.68.89-4.52,5.43a22.2,22.2,0,0,1,2,6,11.06,11.06,0,0,0-2.31-2.11,2.2,2.2,0,0,0-3,.31c-.28.39.75,1,1.71,2.67,1.24,2.15,1.29,3.73,3.15,5.65a6.08,6.08,0,0,1,1.18,3.38,47.12,47.12,0,0,1-1.72,12.27c-3.27-4.61-6.89-9.29-9.63-13-5-6.76-6.22-8.87-15.11-9l2.76,15.72s18.86,24.92,24.11,26.39c2.24.63,4,.23,5-.94h0l0,0,.06-.07c1.57-1.8,2.49-7.29,3-15.08h0c.34-3.9.6-8.31.91-13.05A71.84,71.84,0,0,0,196,187.92Z" style="fill: rgb(177, 102, 104); transform-origin: 178.423px 200.546px;" id="ele7uzh895mn7" class="animable"></path><path d="M185.18,207.34a43.88,43.88,0,0,0-1.27,4.62,18,18,0,0,0,.12,7.95s-1.7-2-1.57-6.52a17.78,17.78,0,0,1,1.75-7.42Z" style="fill: rgb(154, 74, 77); transform-origin: 183.816px 212.94px;" id="elbjcvidft2mb" class="animable"></path><path d="M110.41,275.17a5.62,5.62,0,0,0-2.79-2.05,6.12,6.12,0,0,0-5.88,2.75c-1.6,2.53-2.11,5.67-3.09,7.58s-3.93,4.89-5.53,6.38a10.89,10.89,0,0,0-2.38,9.45A6.16,6.16,0,0,0,95,303.39Z" style="fill: rgb(55, 71, 79); transform-origin: 100.447px 288.232px;" id="elo53jb36m28" class="animable"></path><path d="M109.45,274.34c-1.64-.52-4.36.3-6.07,2.38-1.48,1.81-2.25,4.75-3.07,6.86a11.4,11.4,0,0,1-2,2.88c-.86,1.11-3.14,3.33-3.91,4.51a11.74,11.74,0,0,0-1.36,3.1,10.72,10.72,0,0,0-.48,3.68c.12,1.92,1,4.68,2.62,5.77a3.52,3.52,0,0,0,5.33-1.34c.36-.71.73-1.41,1-2.15a20.19,20.19,0,0,1,2.33-3.91A25,25,0,0,1,108,292c.17-.13.34-.28.51-.39,1.91-1.25,3.88-2.36,4.06-3.12s.89-9.91.89-9.91C112.42,278.27,111.08,274.86,109.45,274.34Z" style="fill: rgb(255, 193, 0); transform-origin: 103.005px 289.212px;" id="elvvx3kfkx7d" class="animable"></path><path d="M143.39,237.71,141.64,293c-1.28-2.81-7.16-5.24-12-6.91-3.13-1.07-8.41-3.9-12-5.28h0l-5.68-3a6.1,6.1,0,0,0-3.16,1.55c-1.17,1-3.28,4.68-1.73,5.79a1.51,1.51,0,0,1,.78,1.34c1-.56,2.58.16,3.53.82a1.9,1.9,0,0,1,.79,1.06S132,301.67,138.5,306c8.06,5.37,12.49,3.11,15.51-.86s8.45-17.51,12-28.39,4.31-27.51,4.4-35.25Z" style="fill: rgb(177, 102, 104); transform-origin: 138.466px 273.438px;" id="ellkl3bjdx85a" class="animable"></path><path d="M170.44,241.54l-27.05-3.83s-2.17,38.51-2,41.42h0a6.36,6.36,0,0,0,2,4.78c3.6,3.88,10.71,6.07,15.87,4.89,2.62-.6,4.32-1.93,4.8-3.62h0s4.25-10.89,5.64-20.72S170.44,241.54,170.44,241.54Z" style="fill: rgb(55, 71, 79); transform-origin: 155.986px 263.415px;" id="elx0j00nkpp3b" class="animable"></path><path d="M159.8,254.51l8.92,10.94-6.55-10s5.9-2.49,7.35-7.23C169.52,248.26,165.2,253.87,159.8,254.51Z" style="fill: rgb(38, 50, 56); transform-origin: 164.66px 256.835px;" id="elz80mekbx8a" class="animable"></path><g id="el2shraob7dt3"><ellipse cx="158.6" cy="275.87" rx="14.2" ry="8.33" style="fill: rgb(38, 50, 56); transform-origin: 158.6px 275.87px; transform: rotate(-46.08deg);" class="animable"></ellipse></g><path d="M173.51,359.61c-.51.12-.55,2.13-.35,2.7a6.56,6.56,0,0,0,2.17,2.62,17.23,17.23,0,0,1,4.18,4.74,18.33,18.33,0,0,0,5.28,5.8A13.68,13.68,0,0,0,194.5,377c3.69-.63,4.06-2.44,4.08-3.73Z" style="fill: rgb(55, 71, 79); transform-origin: 185.814px 368.457px;" id="elzooq2uhtcl" class="animable"></path><path d="M184.25,352.55c.55,1.39,3.38,8.24,6.89,11.1,2.8,2.27,6.58,4.87,7.66,7.52s-2.7,4.28-7.17,4.28c-4.65,0-6.92-2.31-9.09-4.7-1.53-1.67-3.58-4.67-4.68-6s-3.54-2.73-4.18-4.3c-.35-.86-.1-2.8.24-4.45s.63-3.18,1.15-3.07l.05.92C175.77,354.51,184.25,352.55,184.25,352.55Z" style="fill: rgb(255, 193, 0); transform-origin: 186.249px 364px;" id="elkb8v6k5pqnb" class="animable"></path><path d="M178.55,277.34c-8.92-10.75-18.75-22.83-18.75-22.83l10.64-13-37.6-5.33c-1.6,6.45-3.12,8.75-3.22,16.19-.06,5.2-.69,11.52,19.8,28.23,11.28,9.21,19.9,15.31,19.9,15.31s-2.53,4.59-2.37,13,7.51,36.49,8.1,43.9c0,.32,0,.63,0,.84,0,.37.26.53.5.77a4.16,4.16,0,0,1,.82,1.39,1.17,1.17,0,0,0,.52.7,1.28,1.28,0,0,0,.67.06c.67,0,1.71-.16,2,.58a2.55,2.55,0,0,1,1-1.75c1-.77,3.85-2.12,4.67-.17l0,0a20.34,20.34,0,0,1-1-7.1c.3-10.33,1.21-41.56,1.31-49.4C185.65,290,186.67,287.12,178.55,277.34Z" style="fill: rgb(177, 102, 104); transform-origin: 157.622px 296.665px;" id="el7r8uga0yyhc" class="animable"></path><path d="M149,286.3c-2.93-3.49-1.24-10,4.46-15.72,5.51-5.48,14.22-6,16.31-3.9l-9.95-12.17c3.9,0,9.27-4.55,10.64-8.1v-4.87l-37.6-5.33s-3.13,7.95-3.82,13.9-.92,12,3.55,18.09S149,286.3,149,286.3Z" style="fill: rgb(69, 90, 100); transform-origin: 149.559px 261.255px;" id="el2mszirwle4p" class="animable"></path><path d="M152.47,168.25l-3.57,12.06c-9.93,0-16.06-9.66-16.06-19.59h0c0-10,6.35-18.29,16.32-18.29h3.23c10,0,18.05,6.61,18.05,16.58h0C170.44,165.51,162.39,168.25,152.47,168.25Z" style="fill: rgb(38, 50, 56); transform-origin: 151.64px 161.37px;" id="elbsxg0ubp0c" class="animable"></path><path d="M172.3,149.78a7.15,7.15,0,0,0,1-4.14,4.77,4.77,0,0,0-2.07-3.65c-1.85-1.19-4.42-.63-6.15.74a5,5,0,0,0-5.37-4.48,10.92,10.92,0,0,0-4.55,1.88,24,24,0,0,1-7.73,2.38l3,1.19a5,5,0,0,0-.53,4.35,4.62,4.62,0,0,0,.47.84,20.45,20.45,0,0,0,18.59,9,5.9,5.9,0,0,0,2.88-.82,4.58,4.58,0,0,0,1.27-1.36,5.12,5.12,0,0,0,.89-3.21A3.33,3.33,0,0,0,172.3,149.78Z" style="fill: rgb(38, 50, 56); transform-origin: 160.72px 148.094px;" id="el1h0j5gwsn7b" class="animable"></path><path d="M143.15,185.11h-1.94c-8.78.61-9.26,3.67-9.71,7.5a29.9,29.9,0,0,0,.23,12.47c1.37,5.39,4,18.28,4,18.28s-3.51,11.47-4.6,17.19c15.35,10,32.92,7,39.28,1-.13-5.44.14-11.28-.31-16.39A120.64,120.64,0,0,1,171,213c4.12-5.26,3.84-9.33,2.05-13.6-3.16-7.55-10.8-14.08-12.76-14.07Z" style="fill: rgb(255, 193, 0); transform-origin: 152.622px 216.092px;" id="elu1x4zehz2s" class="animable"></path><path d="M164,150.38c2.08,1.23,4.64,6.45,4.39,17.4-.21,9.29-3.22,11.58-4.73,12.24s-4.43.26-7.26-.21v5.57s3.91,4.55,3.67,7.1-5.66,3.16-9.32.66-6-7.43-6-7.43v-12s-1.91,2.27-5,.19-3.25-7.22-1.43-9.07,5.74-1.26,6.47,1.29c0,0,4.52.17,10.53-3.14A16.89,16.89,0,0,0,164,150.38Z" style="fill: rgb(177, 102, 104); transform-origin: 152.776px 172.557px;" id="el94p2e06csx5" class="animable"></path><path d="M157,165.45a1.19,1.19,0,0,1-1.11,1.27,1.21,1.21,0,0,1-1.23-1.16,1.17,1.17,0,1,1,2.34-.11Z" style="fill: rgb(38, 50, 56); transform-origin: 155.831px 165.527px;" id="elhhhmiw9ki3r" class="animable"></path><path d="M158.32,173.32l2.71.87a1.4,1.4,0,0,1-1.76,1A1.49,1.49,0,0,1,158.32,173.32Z" style="fill: rgb(154, 74, 77); transform-origin: 159.639px 174.285px;" id="elrfydirq523g" class="animable"></path><path d="M166.54,161.87l-2.36-1.64a1.38,1.38,0,0,1,2-.4A1.51,1.51,0,0,1,166.54,161.87Z" style="fill: rgb(38, 50, 56); transform-origin: 165.484px 160.716px;" id="el2z3d9w4wqbm" class="animable"></path><path d="M166,164.61a1.17,1.17,0,1,1-2.33.11,1.17,1.17,0,1,1,2.33-.11Z" style="fill: rgb(38, 50, 56); transform-origin: 164.835px 164.665px;" id="elvs8nt58vuo" class="animable"></path><polygon points="160.29 163.94 160.48 170.97 164.18 169.82 160.29 163.94" style="fill: rgb(154, 74, 77); transform-origin: 162.235px 167.455px;" id="el1c45qb36n2r" class="animable"></polygon><path d="M156.38,179.81c-3-.39-9.13-2.16-10.09-4.59a6.27,6.27,0,0,0,2.16,3.1c1.83,1.58,7.93,3.35,7.93,3.35Z" style="fill: rgb(154, 74, 77); transform-origin: 151.335px 178.445px;" id="elnixvgh2587c" class="animable"></path><path d="M115.84,251.78c-1.1-2.58-1.88-3.41-2.37-5.81a11,11,0,0,0,2.3,1.85c1,.52,2.43.51,2.79-.43s-1.23-1.5-1.83-2.59a31.16,31.16,0,0,0-3.28-5.23,3.59,3.59,0,0,1-1.13-2.57c.1-6.91,1.11-14.34,1.31-21.41,5.05-3.62,13.54-7.59,18.1-10.51A12.07,12.07,0,0,0,139,201a13.5,13.5,0,0,0,2.8-10.66c-.27-1.67-1-4.53-2.64-5-.77-.21-2.94-.08-5.91,1.22-2,.87-6.12,3-14.39,8.2a74.39,74.39,0,0,0-16.35,13.48c-2.14,2.45-.79,22.48-.45,27.22.18,2.57.56,6.53,1.13,9.92,1,5.72,4.18,10.48,8.3,11.49C118,258.48,117.34,255.27,115.84,251.78Z" style="fill: rgb(177, 102, 104); transform-origin: 121.654px 221.278px;" id="elgfd1s511md" class="animable"></path><path d="M144.72,223.84s15.57,1,24.76-3.93v15.53s-10.49,6.58-25.16,3Z" style="fill: rgb(240, 240, 240); transform-origin: 156.9px 229.708px;" id="elgdwa76byit" class="animable"></path><path d="M153,230.72v.47l0,.53c0,.18,0,.36,0,.53s0,.33,0,.48a5.09,5.09,0,0,1-.24,1.21,2.54,2.54,0,0,1-.55,1,2.35,2.35,0,0,1-.95.62,3.59,3.59,0,0,1-1.41.17,3.49,3.49,0,0,1-1.4-.31,2.39,2.39,0,0,1-.91-.7,2.79,2.79,0,0,1-.49-1,5.37,5.37,0,0,1-.16-1.23c0-.29,0-.62,0-1s0-.69.06-1a5,5,0,0,1,.23-1.2,2.43,2.43,0,0,1,.55-.95,2.45,2.45,0,0,1,.94-.6,3.63,3.63,0,0,1,1.42-.16,4,4,0,0,1,1.4.28,2.51,2.51,0,0,1,.91.67,2.45,2.45,0,0,1,.49,1A5.21,5.21,0,0,1,153,230.72Zm-4.64,1.77a2.47,2.47,0,0,0,.35,1.29,1.34,1.34,0,0,0,1.12.5,1.27,1.27,0,0,0,1.14-.4,2.18,2.18,0,0,0,.43-1.24c0-.28,0-.6.05-.95s0-.66,0-.95a2.3,2.3,0,0,0-.36-1.27A1.33,1.33,0,0,0,150,229a1.32,1.32,0,0,0-1.15.38,2.3,2.3,0,0,0-.43,1.24c0,.28,0,.6-.05.94S148.34,232.21,148.35,232.49Z" id="el9eqz7mbkanr" class="animable" style="transform-origin: 149.946px 231.654px;"></path><path d="M158.46,230.42a1.74,1.74,0,0,0,.45-.65,2,2,0,0,0,.12-.54.91.91,0,0,0-.27-.73,1,1,0,0,0-.93-.14,1.48,1.48,0,0,0-.93.47,2.15,2.15,0,0,0-.44.85.49.49,0,0,1-.15.24.45.45,0,0,1-.2.11l-.91.14a.25.25,0,0,1-.22,0,.23.23,0,0,1-.08-.21,2.87,2.87,0,0,1,.3-1,3.61,3.61,0,0,1,.63-.89,3.67,3.67,0,0,1,.91-.68,3.94,3.94,0,0,1,1.12-.4,3,3,0,0,1,1.23,0,2.16,2.16,0,0,1,.86.42,1.79,1.79,0,0,1,.48.71,2.28,2.28,0,0,1,.14.86,4.51,4.51,0,0,1,0,.54,2.47,2.47,0,0,1-.17.55,3.4,3.4,0,0,1-.39.61,5.69,5.69,0,0,1-.65.72l-2.17,2.32c1.27-.23,1.9-.35,3.17-.62a.27.27,0,0,1,.22,0,.24.24,0,0,1,.08.2l0,.8a.39.39,0,0,1-.1.24.44.44,0,0,1-.22.14c-2.13.45-3.2.64-5.34,1a.26.26,0,0,1-.21-.06.22.22,0,0,1-.08-.2l0-.69a.55.55,0,0,1,.12-.35,1.29,1.29,0,0,1,.2-.23C156.37,232.54,157.07,231.84,158.46,230.42Z" id="eljmxloxzvw9c" class="animable" style="transform-origin: 157.685px 231.205px;"></path><path d="M168,224.61a.25.25,0,0,1,.21,0,.21.21,0,0,1,.09.19l0,.8a.45.45,0,0,1-.09.26l-.17.24-1.72,2.23a3.26,3.26,0,0,1,.93,0,1.63,1.63,0,0,1,.69.26,1.15,1.15,0,0,1,.44.55,1.93,1.93,0,0,1,.13.83,2.87,2.87,0,0,1-.26,1.12,3.74,3.74,0,0,1-.67,1,4.55,4.55,0,0,1-1,.78,5.14,5.14,0,0,1-1.23.51,4.62,4.62,0,0,1-1.38.18,2.55,2.55,0,0,1-1-.24,1.45,1.45,0,0,1-.59-.53,1.5,1.5,0,0,1-.21-.68.29.29,0,0,1,.09-.24.39.39,0,0,1,.23-.13l.9-.22a.21.21,0,0,1,.18,0,.63.63,0,0,1,.15.17.73.73,0,0,0,.47.35,1.73,1.73,0,0,0,.48,0,3.85,3.85,0,0,0,.69-.13,2.7,2.7,0,0,0,1.13-.59,1.27,1.27,0,0,0,.45-.91.53.53,0,0,0-.4-.61,2.54,2.54,0,0,0-1.12.09l-1,.26a.23.23,0,0,1-.3-.23l0-.81a.57.57,0,0,1,.1-.25,2.29,2.29,0,0,1,.17-.23l1.65-2.09c-1.26.35-1.9.51-3.16.81a.25.25,0,0,1-.21,0,.24.24,0,0,1-.09-.2l0-.8a.38.38,0,0,1,.09-.24.48.48,0,0,1,.22-.14C165,225.48,166,225.21,168,224.61Z" id="elyh0d9m6iyp" class="animable" style="transform-origin: 165.341px 229.074px;"></path></g></g><g id="freepik--hurdle-1--inject-4" class="animable" style="transform-origin: 194.955px 349.366px;"><g id="freepik--fence--inject-4" class="animable" style="transform-origin: 194.955px 349.366px;"><path d="M157.72,344.57v76.31a.53.53,0,0,1-.8.45l-25.85-14.92-3.33,5.77L158,429.67a4.22,4.22,0,0,0,6.34-3.66v-77.6Z" style="fill: rgb(69, 90, 100); transform-origin: 146.04px 387.406px;" id="el7w1en5iogjb" class="animable"></path><path d="M129.42,406.58c1.3-.75,2.36-.14,2.36,1.36a5.22,5.22,0,0,1-2.36,4.08c-1.3.75-2.35.14-2.35-1.36A5.21,5.21,0,0,1,129.42,406.58Z" style="fill: rgb(69, 90, 100); transform-origin: 129.425px 409.3px;" id="elu32jkojv3m" class="animable"></path><path d="M249.52,291.57v76.31a.53.53,0,0,1-.79.46l-25.85-14.93-3.34,5.77,30.31,17.49a4.22,4.22,0,0,0,6.33-3.65V295.41Z" style="fill: rgb(69, 90, 100); transform-origin: 237.86px 334.403px;" id="elriddhnh80e8" class="animable"></path><path d="M221.22,353.58c1.3-.75,2.36-.14,2.36,1.36a5.22,5.22,0,0,1-2.36,4.08c-1.3.75-2.35.14-2.35-1.36A5.21,5.21,0,0,1,221.22,353.58Z" style="fill: rgb(69, 90, 100); transform-origin: 221.225px 356.3px;" id="el36qnx4xs2ps" class="animable"></path><polygon points="144.4 333.03 256.18 268.49 262.84 272.34 262.84 295.41 151.06 359.95 144.4 356.1 144.4 333.03" style="fill: rgb(255, 193, 0); transform-origin: 203.62px 314.22px;" id="elm3zcys80j9o" class="animable"></polygon><g id="el26f8c4wn7tl"><polygon points="144.4 333.03 151.06 336.87 262.84 272.34 256.18 268.49 144.4 333.03" style="fill: rgb(255, 255, 255); opacity: 0.8; transform-origin: 203.62px 302.68px;" class="animable"></polygon></g><g id="elvsx895mwbo8"><polygon points="151.06 336.87 262.84 272.34 262.84 295.41 151.06 359.95 151.06 336.87" style="fill: rgb(255, 255, 255); opacity: 0.65; transform-origin: 206.95px 316.145px;" class="animable"></polygon></g><g id="eli926j1ki9t"><polygon points="144.4 333.03 151.06 336.87 151.06 359.95 144.4 356.1 144.4 333.03" style="fill: rgb(255, 255, 255); opacity: 0.5; transform-origin: 147.73px 346.49px;" class="animable"></polygon></g></g></g><defs>     <filter id="active" height="200%">         <feMorphology in="SourceAlpha" result="DILATED" operator="dilate" radius="2"></feMorphology>                <feFlood flood-color="#32DFEC" flood-opacity="1" result="PINK"></feFlood>        <feComposite in="PINK" in2="DILATED" operator="in" result="OUTLINE"></feComposite>        <feMerge>            <feMergeNode in="OUTLINE"></feMergeNode>            <feMergeNode in="SourceGraphic"></feMergeNode>        </feMerge>    </filter>    <filter id="hover" height="200%">        <feMorphology in="SourceAlpha" result="DILATED" operator="dilate" radius="2"></feMorphology>                <feFlood flood-color="#ff0000" flood-opacity="0.5" result="PINK"></feFlood>        <feComposite in="PINK" in2="DILATED" operator="in" result="OUTLINE"></feComposite>        <feMerge>            <feMergeNode in="OUTLINE"></feMergeNode>            <feMergeNode in="SourceGraphic"></feMergeNode>        </feMerge>            <feColorMatrix type="matrix" values="0   0   0   0   0                0   1   0   0   0                0   0   0   0   0                0   0   0   1   0 "></feColorMatrix>    </filter></defs></svg>